<svg width="290" height="19" viewBox="0 0 290 19" fill="none" xmlns="http://www.w3.org/2000/svg">
<path d="M14.7265 7.986C14.7265 3.975 11.4925 0.741 7.4815 0.741C3.4915 0.741 0.2365 3.975 0.2365 7.986C0.2365 11.976 3.4915 15.231 7.4815 15.231C11.4925 15.231 14.7265 11.976 14.7265 7.986ZM14.0755 7.986C14.0755 11.619 11.1145 14.58 7.4815 14.58C3.8485 14.58 0.8875 11.619 0.8875 7.986C0.8875 4.353 3.8485 1.392 7.4815 1.392C11.1145 1.392 14.0755 4.353 14.0755 7.986ZM10.0645 10.548C9.5185 11.283 8.5315 11.766 7.5235 11.766C5.6335 11.766 3.9325 10.17 3.9325 7.965C3.9325 5.697 5.6335 4.185 7.5235 4.185C8.5105 4.185 9.5185 4.647 10.0645 5.382L10.5895 4.878C9.8545 4.017 8.8255 3.492 7.5235 3.492C5.1085 3.492 3.1555 5.403 3.1555 7.965C3.1555 10.527 5.1085 12.459 7.5235 12.459C8.8255 12.459 9.8545 11.955 10.6105 11.073L10.0645 10.548ZM31.8233 15V13.446H24.9563C28.8623 10.359 31.7603 7.755 31.7603 4.899C31.7603 2.106 29.3873 0.782999 27.0563 0.782999C25.0823 0.782999 23.2553 1.581 22.1843 2.988L23.2553 4.101C24.0743 3.051 25.3763 2.337 27.0563 2.337C28.5053 2.337 29.9753 3.114 29.9753 4.899C29.9753 7.314 27.2453 9.645 22.2053 13.614V15H31.8233ZM39.843 15.252C43.665 15.252 45.198 11.409 45.198 8.007C45.198 4.584 43.665 0.782999 39.843 0.782999C36 0.782999 34.488 4.584 34.488 8.007C34.488 11.409 36 15.252 39.843 15.252ZM39.843 13.698C37.176 13.698 36.273 10.8 36.273 8.007C36.273 5.214 37.176 2.337 39.843 2.337C42.51 2.337 43.413 5.214 43.413 8.007C43.413 10.8 42.51 13.698 39.843 13.698ZM57.0274 15V13.446H50.1604C54.0664 10.359 56.9644 7.755 56.9644 4.899C56.9644 2.106 54.5914 0.782999 52.2604 0.782999C50.2864 0.782999 48.4594 1.581 47.3884 2.988L48.4594 4.101C49.2784 3.051 50.5804 2.337 52.2604 2.337C53.7094 2.337 55.1794 3.114 55.1794 4.899C55.1794 7.314 52.4494 9.645 47.4094 13.614V15H57.0274ZM64.2071 15.252C67.2941 15.252 69.1631 13.551 69.1631 11.22C69.1631 8.973 67.2101 7.881 65.9291 7.776C67.2521 7.545 68.9531 6.537 68.9531 4.521C68.9531 2.148 66.8951 0.782999 64.2071 0.782999C62.0441 0.782999 60.4271 1.728 59.4191 2.946L60.3851 4.038C61.4141 2.925 62.5481 2.337 64.0811 2.337C65.7821 2.337 67.2101 3.177 67.2101 4.731C67.2101 6.348 65.7191 7.041 63.9551 7.041C63.3881 7.041 62.7371 7.041 62.5061 7.02V8.616C62.7161 8.595 63.3671 8.595 63.9551 8.595C66.0131 8.595 67.4411 9.33 67.4411 11.073C67.4411 12.69 66.2021 13.698 64.1651 13.698C62.5061 13.698 61.0781 12.942 60.2591 11.85L59.2301 12.942C60.0911 14.202 61.8341 15.252 64.2071 15.252ZM81.8986 15.252C85.6786 15.252 87.0646 13.173 87.0646 11.136C87.0646 8.196 84.4606 7.482 82.1716 6.873C80.3866 6.39 78.7696 5.97 78.7696 4.563C78.7696 3.24 79.9666 2.337 81.6466 2.337C83.1796 2.337 84.6496 2.862 85.6996 4.017L86.7496 2.736C85.5736 1.497 83.9146 0.782999 81.7726 0.782999C79.0216 0.782999 76.9636 2.358 76.9636 4.668C76.9636 7.419 79.4626 8.049 81.7096 8.637C83.5576 9.141 85.2586 9.603 85.2586 11.283C85.2586 12.354 84.4606 13.698 81.9616 13.698C79.9876 13.698 78.4756 12.732 77.5516 11.703L76.5226 13.026C77.6776 14.328 79.4626 15.252 81.8986 15.252ZM94.6023 15.252C97.2693 15.252 99.1173 13.194 99.1173 9.918C99.1173 6.621 97.2693 4.605 94.6023 4.605C93.1743 4.605 91.9143 5.34 91.1793 6.369V4.857H89.6043V18.864H91.1793V13.467C91.9983 14.601 93.2163 15.252 94.6023 15.252ZM94.2033 13.845C92.9643 13.845 91.7253 13.089 91.1793 12.207V7.629C91.7253 6.747 92.9643 6.012 94.2033 6.012C96.2403 6.012 97.4583 7.671 97.4583 9.918C97.4583 12.165 96.2403 13.845 94.2033 13.845ZM106.2 15.252C107.859 15.252 109.224 14.706 110.232 13.698L109.476 12.669C108.678 13.488 107.502 13.95 106.347 13.95C104.163 13.95 102.819 12.354 102.693 10.443H110.904V10.044C110.904 6.999 109.098 4.605 106.032 4.605C103.134 4.605 101.034 6.978 101.034 9.918C101.034 13.089 103.197 15.252 106.2 15.252ZM109.35 9.288H102.693C102.777 7.734 103.848 5.907 106.011 5.907C108.321 5.907 109.329 7.776 109.35 9.288ZM121.372 15V8.028C121.372 5.571 119.587 4.605 117.445 4.605C115.786 4.605 114.484 5.151 113.392 6.285L114.127 7.377C115.03 6.411 116.017 5.97 117.235 5.97C118.705 5.97 119.797 6.747 119.797 8.112V9.939C118.978 8.994 117.823 8.553 116.437 8.553C114.715 8.553 112.888 9.624 112.888 11.892C112.888 14.097 114.715 15.252 116.437 15.252C117.802 15.252 118.957 14.769 119.797 13.845V15H121.372ZM117.004 14.118C115.534 14.118 114.505 13.194 114.505 11.913C114.505 10.611 115.534 9.687 117.004 9.687C118.117 9.687 119.188 10.107 119.797 10.947V12.858C119.188 13.698 118.117 14.118 117.004 14.118ZM133.454 15L128.939 9.456L133.433 4.857H131.438L126.104 10.254V0.992999H124.529V15H126.104V12.102L127.784 10.443L131.438 15H133.454ZM144.556 15V13.446H137.122V8.616H144.409V7.062H137.122V2.547H144.556V0.992999H135.379V15H144.556ZM155.189 15V8.028C155.189 5.571 153.404 4.605 151.262 4.605C149.603 4.605 148.301 5.151 147.209 6.285L147.944 7.377C148.847 6.411 149.834 5.97 151.052 5.97C152.522 5.97 153.614 6.747 153.614 8.112V9.939C152.795 8.994 151.64 8.553 150.254 8.553C148.532 8.553 146.705 9.624 146.705 11.892C146.705 14.097 148.532 15.252 150.254 15.252C151.619 15.252 152.774 14.769 153.614 13.845V15H155.189ZM150.821 14.118C149.351 14.118 148.322 13.194 148.322 11.913C148.322 10.611 149.351 9.687 150.821 9.687C151.934 9.687 153.005 10.107 153.614 10.947V12.858C153.005 13.698 151.934 14.118 150.821 14.118ZM161.559 15.252C164.184 15.252 165.549 13.887 165.549 12.186C165.549 9.939 163.512 9.435 161.748 9.036C160.425 8.721 159.27 8.448 159.27 7.482C159.27 6.579 160.131 5.886 161.517 5.886C162.819 5.886 163.932 6.432 164.541 7.167L165.276 6.075C164.457 5.256 163.239 4.605 161.517 4.605C159.102 4.605 157.737 5.949 157.737 7.524C157.737 9.624 159.69 10.086 161.412 10.485C162.777 10.821 164.016 11.115 164.016 12.228C164.016 13.236 163.176 13.971 161.622 13.971C160.236 13.971 158.955 13.299 158.283 12.522L157.464 13.656C158.493 14.748 159.9 15.252 161.559 15.252ZM172.686 15.252C174.345 15.252 175.71 14.706 176.718 13.698L175.962 12.669C175.164 13.488 173.988 13.95 172.833 13.95C170.649 13.95 169.305 12.354 169.179 10.443H177.39V10.044C177.39 6.999 175.584 4.605 172.518 4.605C169.62 4.605 167.52 6.978 167.52 9.918C167.52 13.089 169.683 15.252 172.686 15.252ZM175.836 9.288H169.179C169.263 7.734 170.334 5.907 172.497 5.907C174.807 5.907 175.815 7.776 175.836 9.288ZM187.371 15V6.243H189.429V4.857H187.371V4.08C187.371 2.799 187.938 2.085 188.967 2.085C189.492 2.085 189.891 2.295 190.227 2.589L190.878 1.56C190.248 0.971999 189.534 0.782999 188.736 0.782999C186.93 0.782999 185.796 2.001 185.796 4.08V4.857H184.116V6.243H185.796V15H187.371ZM192.878 15V7.818C193.34 6.999 194.663 6.201 195.629 6.201C195.881 6.201 196.07 6.222 196.259 6.264V4.647C194.873 4.647 193.697 5.424 192.878 6.495V4.857H191.303V15H192.878ZM202.665 15.252C205.752 15.252 207.684 12.858 207.684 9.918C207.684 6.978 205.752 4.605 202.665 4.605C199.578 4.605 197.646 6.978 197.646 9.918C197.646 12.858 199.578 15.252 202.665 15.252ZM202.665 13.845C200.502 13.845 199.284 11.997 199.284 9.918C199.284 7.86 200.502 6.012 202.665 6.012C204.828 6.012 206.025 7.86 206.025 9.918C206.025 11.997 204.828 13.845 202.665 13.845ZM224.07 15V7.671C224.07 5.634 223.083 4.605 221.235 4.605C219.765 4.605 218.4 5.571 217.833 6.495C217.539 5.445 216.657 4.605 215.103 4.605C213.612 4.605 212.247 5.676 211.827 6.327V4.857H210.252V15H211.827V7.587C212.373 6.768 213.465 6.012 214.494 6.012C215.817 6.012 216.363 6.831 216.363 8.112V15H217.938V7.566C218.463 6.768 219.576 6.012 220.626 6.012C221.928 6.012 222.495 6.831 222.495 8.112V15H224.07ZM244.281 15V0.992999H242.538V11.934L234.474 0.992999H232.689V15H234.432V3.828L242.601 15H244.281ZM249.3 15V8.616H256.587V7.062H249.3V2.547H256.734V0.992999H247.557V15H249.3ZM264.311 15V2.547H268.763V0.992999H258.137V2.547H262.568V15H264.311ZM273.174 15.252C274.833 15.252 276.198 14.706 277.206 13.698L276.45 12.669C275.652 13.488 274.476 13.95 273.321 13.95C271.137 13.95 269.793 12.354 269.667 10.443H277.878V10.044C277.878 6.999 276.072 4.605 273.006 4.605C270.108 4.605 268.008 6.978 268.008 9.918C268.008 13.089 270.171 15.252 273.174 15.252ZM276.324 9.288H269.667C269.751 7.734 270.822 5.907 272.985 5.907C275.295 5.907 276.303 7.776 276.324 9.288ZM285.007 15.252C286.666 15.252 288.031 14.706 289.039 13.698L288.283 12.669C287.485 13.488 286.309 13.95 285.154 13.95C282.97 13.95 281.626 12.354 281.5 10.443H289.711V10.044C289.711 6.999 287.905 4.605 284.839 4.605C281.941 4.605 279.841 6.978 279.841 9.918C279.841 13.089 282.004 15.252 285.007 15.252ZM288.157 9.288H281.5C281.584 7.734 282.655 5.907 284.818 5.907C287.128 5.907 288.136 7.776 288.157 9.288Z" fill="#A2FF88"/>
</svg>
