<svg width="210" height="222" viewBox="0 0 210 222" fill="none" xmlns="http://www.w3.org/2000/svg">
<path d="M25.23 48.84C35.52 48.84 41.4 43.17 44.76 37.36L36.22 33.23C34.26 37.08 30.06 40.02 25.23 40.02C16.76 40.02 10.6 33.51 10.6 24.69C10.6 15.87 16.76 9.36 25.23 9.36C30.06 9.36 34.26 12.37 36.22 16.15L44.76 11.95C41.47 6.14 35.52 0.539998 25.23 0.539998C11.23 0.539998 0.38 10.34 0.38 24.69C0.38 39.04 11.23 48.84 25.23 48.84ZM59.3566 48V25.67C60.8266 23.5 64.7466 21.82 67.6866 21.82C68.6666 21.82 69.5066 21.89 70.1366 22.03V13.35C65.9366 13.35 61.7366 15.8 59.3566 18.81V14.19H50.4666V48H59.3566ZM74.5013 61.23C75.6213 61.51 77.8613 61.72 78.9113 61.72C84.7213 61.58 89.2013 59.9 91.7213 53.53L107.611 14.19H98.0213L89.2013 37.71L80.3813 14.19H70.8612L84.5813 48.49L83.3213 51.36C82.4813 53.18 80.9413 53.81 78.6313 53.81C77.7913 53.81 76.6013 53.6 75.8313 53.25L74.5013 61.23ZM130.9 48.84C139.58 48.84 145.88 42.33 145.88 31.06C145.88 19.79 139.58 13.35 130.9 13.35C126.77 13.35 123.06 15.17 120.47 18.46V14.19H111.58V60.88H120.47V43.66C123.2 47.16 126.91 48.84 130.9 48.84ZM128.1 40.93C125.23 40.93 121.94 39.18 120.47 37.08V25.11C121.94 22.94 125.23 21.26 128.1 21.26C133.21 21.26 136.64 25.25 136.64 31.06C136.64 36.94 133.21 40.93 128.1 40.93ZM163.73 48.84C167.44 48.84 169.82 47.86 171.15 46.67L169.26 39.95C168.77 40.44 167.51 40.93 166.18 40.93C164.22 40.93 163.1 39.32 163.1 37.22V21.96H169.96V14.19H163.1V4.95H154.14V14.19H148.54V21.96H154.14V39.6C154.14 45.62 157.5 48.84 163.73 48.84ZM191.723 48.84C202.923 48.84 209.643 40.72 209.643 31.06C209.643 21.47 202.923 13.35 191.723 13.35C180.593 13.35 173.873 21.47 173.873 31.06C173.873 40.72 180.593 48.84 191.723 48.84ZM191.723 40.93C186.193 40.93 183.113 36.38 183.113 31.06C183.113 25.81 186.193 21.26 191.723 21.26C197.253 21.26 200.403 25.81 200.403 31.06C200.403 36.38 197.253 40.93 191.723 40.93ZM53.3 128V103.57C53.3 96.64 49.59 93.35 43.36 93.35C38.18 93.35 33.7 96.43 31.74 99.51C30.48 95.66 27.33 93.35 22.36 93.35C17.18 93.35 12.7 96.57 11.3 98.6V94.19H2.41V128H11.3V105.25C12.63 103.36 15.22 101.26 18.3 101.26C21.94 101.26 23.34 103.5 23.34 106.65V128H32.3V105.18C33.56 103.36 36.15 101.26 39.3 101.26C42.94 101.26 44.34 103.5 44.34 106.65V128H53.3ZM91.2094 128V106.16C91.2094 96.43 84.1394 93.35 76.4394 93.35C71.1194 93.35 65.7994 95.03 61.6694 98.67L65.0294 104.62C67.8994 101.96 71.2594 100.63 74.8994 100.63C79.3794 100.63 82.3194 102.87 82.3194 106.3V110.85C80.0794 108.19 76.0894 106.72 71.6094 106.72C66.2194 106.72 59.8494 109.73 59.8494 117.64C59.8494 125.2 66.2194 128.84 71.6094 128.84C76.0194 128.84 80.0094 127.23 82.3194 124.5V128H91.2094ZM75.1794 122.82C71.6794 122.82 68.8094 121 68.8094 117.85C68.8094 114.56 71.6794 112.74 75.1794 112.74C78.0494 112.74 80.8494 113.72 82.3194 115.68V119.88C80.8494 121.84 78.0494 122.82 75.1794 122.82ZM132.227 128V81.31H123.267V98.53C120.607 95.1 116.827 93.35 112.837 93.35C104.227 93.35 97.8572 100.07 97.8572 111.13C97.8572 122.4 104.297 128.84 112.837 128.84C116.897 128.84 120.607 127.02 123.267 123.66V128H132.227ZM115.567 120.93C110.527 120.93 107.027 116.94 107.027 111.13C107.027 105.25 110.527 101.26 115.567 101.26C118.577 101.26 121.797 102.87 123.267 105.11V117.08C121.797 119.32 118.577 120.93 115.567 120.93ZM156.933 128.84C162.183 128.84 167.503 127.23 170.863 124.15L166.943 118.41C164.773 120.51 160.783 121.77 157.913 121.77C152.173 121.77 148.743 118.2 148.183 113.93H173.313V111.97C173.313 100.91 166.453 93.35 156.373 93.35C146.083 93.35 138.873 101.26 138.873 111.06C138.873 121.91 146.643 128.84 156.933 128.84ZM164.703 107.91H148.043C148.463 104.55 150.843 100.42 156.373 100.42C162.253 100.42 164.493 104.69 164.703 107.91ZM18.3 208.84C23.55 208.84 28.87 207.23 32.23 204.15L28.31 198.41C26.14 200.51 22.15 201.77 19.28 201.77C13.54 201.77 10.11 198.2 9.55 193.93H34.68V191.97C34.68 180.91 27.82 173.35 17.74 173.35C7.45 173.35 0.24 181.26 0.24 191.06C0.24 201.91 8.01 208.84 18.3 208.84ZM26.07 187.91H9.41C9.83 184.55 12.21 180.42 17.74 180.42C23.62 180.42 25.86 184.69 26.07 187.91ZM70.2914 208V186.16C70.2914 176.43 63.2214 173.35 55.5214 173.35C50.2014 173.35 44.8814 175.03 40.7514 178.67L44.1114 184.62C46.9814 181.96 50.3414 180.63 53.9814 180.63C58.4614 180.63 61.4014 182.87 61.4014 186.3V190.85C59.1614 188.19 55.1714 186.72 50.6914 186.72C45.3014 186.72 38.9314 189.73 38.9314 197.64C38.9314 205.2 45.3014 208.84 50.6914 208.84C55.1014 208.84 59.0914 207.23 61.4014 204.5V208H70.2914ZM54.2614 202.82C50.7614 202.82 47.8914 201 47.8914 197.85C47.8914 194.56 50.7614 192.74 54.2614 192.74C57.1314 192.74 59.9314 193.72 61.4014 195.68V199.88C59.9314 201.84 57.1314 202.82 54.2614 202.82ZM91.2892 208.84C100.669 208.84 105.919 204.15 105.919 197.99C105.919 189.52 98.1492 187.91 92.3392 186.79C88.5592 186.02 85.8992 185.46 85.8992 183.5C85.8992 181.61 87.9992 180.14 91.2192 180.14C95.3492 180.14 99.1992 181.89 101.229 184.06L104.799 177.97C101.439 175.31 96.8892 173.35 91.1492 173.35C82.2592 173.35 77.2892 178.32 77.2892 183.99C77.2892 192.11 84.7792 193.58 90.5892 194.7C94.2992 195.4 97.3792 196.03 97.3792 198.34C97.3792 200.44 95.5592 201.98 91.7092 201.98C87.5092 201.98 82.4692 199.67 80.0192 197.36L76.1692 203.59C79.7392 206.88 85.4092 208.84 91.2892 208.84ZM111.279 221.23C112.399 221.51 114.639 221.72 115.689 221.72C121.499 221.58 125.979 219.9 128.499 213.53L144.389 174.19H134.799L125.979 197.71L117.159 174.19H107.639L121.359 208.49L120.099 211.36C119.259 213.18 117.719 213.81 115.409 213.81C114.569 213.81 113.379 213.6 112.609 213.25L111.279 221.23Z" fill="black"/>
<path d="M152.907 208.77C155.987 208.77 158.577 206.18 158.577 203.1C158.577 200.02 155.987 197.43 152.907 197.43C149.827 197.43 147.237 200.02 147.237 203.1C147.237 206.18 149.827 208.77 152.907 208.77ZM170.817 208.77C173.897 208.77 176.487 206.18 176.487 203.1C176.487 200.02 173.897 197.43 170.817 197.43C167.737 197.43 165.147 200.02 165.147 203.1C165.147 206.18 167.737 208.77 170.817 208.77ZM188.728 208.77C191.808 208.77 194.398 206.18 194.398 203.1C194.398 200.02 191.808 197.43 188.728 197.43C185.648 197.43 183.058 200.02 183.058 203.1C183.058 206.18 185.648 208.77 188.728 208.77Z" fill="white"/>
</svg>
